<?xml version="1.0" encoding="UTF-8" standalone="no"?>
<!-- Created with Inkscape (http://www.inkscape.org/) -->

<svg
   xmlns:osb="http://www.openswatchbook.org/uri/2009/osb"
   xmlns:dc="http://purl.org/dc/elements/1.1/"
   xmlns:cc="http://creativecommons.org/ns#"
   xmlns:rdf="http://www.w3.org/1999/02/22-rdf-syntax-ns#"
   xmlns:svg="http://www.w3.org/2000/svg"
   xmlns="http://www.w3.org/2000/svg"
   xmlns:xlink="http://www.w3.org/1999/xlink"
   xmlns:sodipodi="http://sodipodi.sourceforge.net/DTD/sodipodi-0.dtd"
   xmlns:inkscape="http://www.inkscape.org/namespaces/inkscape"
   width="400"
   height="300"
   viewBox="0 0 105.83333 79.375002"
   version="1.1"
   id="svg2180"
   inkscape:version="0.92.4 (unknown)"
   sodipodi:docname="gauss.svg">
  <defs
     id="defs2174">
    <linearGradient
       id="linearGradient936"
       osb:paint="gradient">
      <stop
         style="stop-color:#8372ff;stop-opacity:1"
         offset="0"
         id="stop932" />
      <stop
         style="stop-color:#ffffff;stop-opacity:0"
         offset="1"
         id="stop934" />
    </linearGradient>
    <marker
       inkscape:isstock="true"
       style="overflow:visible"
       id="marker3892"
       refX="0"
       refY="0"
       orient="auto"
       inkscape:stockid="Arrow1Mend">
      <path
         transform="matrix(-0.4,0,0,-0.4,-4,0)"
         style="fill:#000000;fill-opacity:1;fill-rule:evenodd;stroke:#000000;stroke-width:1.00000003pt;stroke-opacity:1"
         d="M 0,0 5,-5 -12.5,0 5,5 Z"
         id="path3890"
         inkscape:connector-curvature="0" />
    </marker>
    <marker
       inkscape:stockid="Arrow1Mend"
       orient="auto"
       refY="0"
       refX="0"
       id="Arrow1Mend"
       style="overflow:visible"
       inkscape:isstock="true"
       inkscape:collect="always">
      <path
         id="path3212"
         d="M 0,0 5,-5 -12.5,0 5,5 Z"
         style="fill:#231f20;fill-opacity:1;fill-rule:evenodd;stroke:#231f20;stroke-width:1.00000003pt;stroke-opacity:1"
         transform="matrix(-0.4,0,0,-0.4,-4,0)"
         inkscape:connector-curvature="0" />
    </marker>
    <marker
       inkscape:stockid="Arrow1Lend"
       orient="auto"
       refY="0"
       refX="0"
       id="marker3511"
       style="overflow:visible"
       inkscape:isstock="true">
      <path
         id="path3509"
         d="M 0,0 5,-5 -12.5,0 5,5 Z"
         style="fill:#231f20;fill-opacity:1;fill-rule:evenodd;stroke:#231f20;stroke-width:1.00000003pt;stroke-opacity:1"
         transform="matrix(-0.8,0,0,-0.8,-10,0)"
         inkscape:connector-curvature="0" />
    </marker>
    <marker
       inkscape:stockid="Arrow1Lend"
       orient="auto"
       refY="0"
       refX="0"
       id="Arrow1Lend"
       style="overflow:visible"
       inkscape:isstock="true">
      <path
         id="path3206"
         d="M 0,0 5,-5 -12.5,0 5,5 Z"
         style="fill:#231f20;fill-opacity:1;fill-rule:evenodd;stroke:#231f20;stroke-width:1.00000003pt;stroke-opacity:1"
         transform="matrix(-0.8,0,0,-0.8,-10,0)"
         inkscape:connector-curvature="0" />
    </marker>
    <clipPath
       clipPathUnits="userSpaceOnUse"
       id="clipPath1540">
      <path
         d="m 113.171,272.176 h 477 V 122.421 h -477 z"
         id="path1538"
         inkscape:connector-curvature="0" />
    </clipPath>
    <clipPath
       clipPathUnits="userSpaceOnUse"
       id="clipPath1484">
      <path
         d="m 113.171,272.176 h 477 V 122.421 h -477 z"
         id="path1482"
         inkscape:connector-curvature="0" />
    </clipPath>
    <marker
       inkscape:isstock="true"
       style="overflow:visible"
       id="marker3892-3"
       refX="0"
       refY="0"
       orient="auto"
       inkscape:stockid="Arrow1Mend">
      <path
         inkscape:connector-curvature="0"
         transform="matrix(-0.4,0,0,-0.4,-4,0)"
         style="fill:#000000;fill-opacity:1;fill-rule:evenodd;stroke:#000000;stroke-width:1.00000003pt;stroke-opacity:1"
         d="M 0,0 5,-5 -12.5,0 5,5 Z"
         id="path3890-6" />
    </marker>
    <marker
       inkscape:isstock="true"
       style="overflow:visible"
       id="marker3892-5"
       refX="0"
       refY="0"
       orient="auto"
       inkscape:stockid="Arrow1Mend">
      <path
         inkscape:connector-curvature="0"
         transform="matrix(-0.4,0,0,-0.4,-4,0)"
         style="fill:#000000;fill-opacity:1;fill-rule:evenodd;stroke:#000000;stroke-width:1.00000003pt;stroke-opacity:1"
         d="M 0,0 5,-5 -12.5,0 5,5 Z"
         id="path3890-3" />
    </marker>
    <radialGradient
       inkscape:collect="always"
       xlink:href="#linearGradient936"
       id="radialGradient938"
       cx="64.656929"
       cy="53.361046"
       fx="64.656929"
       fy="53.361046"
       r="56.297867"
       gradientTransform="matrix(5.418013,-4.692484e-4,3.2047465e-5,0.37893074,-292.93992,34.270452)"
       gradientUnits="userSpaceOnUse" />
  </defs>
  <sodipodi:namedview
     id="base"
     pagecolor="#ffffff"
     bordercolor="#666666"
     borderopacity="1.0"
     inkscape:pageopacity="0.0"
     inkscape:pageshadow="2"
     inkscape:zoom="1.4142136"
     inkscape:cx="201.38158"
     inkscape:cy="169.21208"
     inkscape:document-units="mm"
     inkscape:current-layer="layer1"
     showgrid="false"
     inkscape:window-width="1366"
     inkscape:window-height="713"
     inkscape:window-x="0"
     inkscape:window-y="27"
     inkscape:window-maximized="1"
     units="px" />
  <metadata
     id="metadata2177">
    <rdf:RDF>
      <cc:Work
         rdf:about="">
        <dc:format>image/svg+xml</dc:format>
        <dc:type
           rdf:resource="http://purl.org/dc/dcmitype/StillImage" />
        <dc:title></dc:title>
      </cc:Work>
    </rdf:RDF>
  </metadata>
  <g
     inkscape:label="Layer 1"
     inkscape:groupmode="layer"
     id="layer1"
     transform="translate(-23.812311,2.563525)">
    <g
       id="g5605"
       transform="matrix(0.92095499,0,0,0.8633614,-44.520254,-13.801579)">
      <path
         inkscape:connector-curvature="0"
         id="path1488"
         style="fill:#ffa19e;fill-opacity:1;fill-rule:nonzero;stroke:none;stroke-width:0.35277775"
         d="m 177.9803,79.054811 c 0,-17.47626 4.13491,-14.89781 4.13491,-21.44607 0,-6.54756 -4.13491,-4.16913 -4.13491,-21.446067 v 42.892137" />
      <path
         inkscape:connector-curvature="0"
         id="path1492"
         style="fill:none;stroke:#ff0000;stroke-width:0.48800001;stroke-linecap:butt;stroke-linejoin:miter;stroke-miterlimit:3.86400008;stroke-dasharray:none;stroke-opacity:1"
         d="m 177.9803,79.054811 c 0,-17.47626 4.13491,-14.89781 4.13491,-21.44607 0,-6.54756 -4.13491,-4.16913 -4.13491,-21.446067" />
    </g>
    <g
       id="g5613"
       transform="matrix(0.63726465,0,0,0.8633614,8.2227582,-11.026358)">
      <path
         sodipodi:nodetypes="ccccccc"
         inkscape:connector-curvature="0"
         id="path1502-2"
         d="m 169.87039,69.012415 c -32.91504,-4.25567 -65.85718,-8.67456 -99.004714,-10.662 -4.526383,-0.23953 -9.059209,-0.30624 -13.591008,-0.30621 l -7e-6,-7.188901 c 4.531797,-6e-6 9.064628,-0.067 13.59101,-0.306457 33.147519,-1.987509 66.089669,-6.406187 99.004709,-10.66176 z"
         style="fill:url(#radialGradient938);fill-opacity:1;fill-rule:nonzero;stroke:none;stroke-width:0.38800001;stroke-linecap:butt;stroke-linejoin:miter;stroke-miterlimit:3.86400008;stroke-dasharray:none;stroke-opacity:1" />
      <path
         inkscape:connector-curvature="0"
         id="path1502"
         d="m 169.87038,39.887087 c -32.91505,4.255573 -65.85719,8.674251 -99.004711,10.66176 -4.526382,0.239456 -9.059213,0.306451 -13.59101,0.306457 M 169.87039,69.012414 C 136.95534,64.756741 104.01321,60.337855 70.865674,58.350412 66.339291,58.110884 61.806465,58.044173 57.274666,58.044201"
         style="fill:none;fill-opacity:1;fill-rule:nonzero;stroke:#0000ff;stroke-width:0.38800001;stroke-linecap:butt;stroke-linejoin:miter;stroke-miterlimit:3.86400008;stroke-dasharray:none;stroke-opacity:1" />
    </g>
    <g
       id="g6657"
       transform="matrix(0.63726465,0,0,0.8633614,8.2227582,-11.026358)">
      <rect
         y="38.022339"
         x="38.856472"
         height="32.414906"
         width="18.547092"
         id="rect6653"
         style="opacity:1;fill:#dceddf;fill-opacity:1;fill-rule:nonzero;stroke:none;stroke-width:0.55016208;stroke-linecap:round;stroke-linejoin:round;stroke-miterlimit:3.86400008;stroke-dasharray:none;stroke-dashoffset:0;stroke-opacity:1;paint-order:normal" />
      <path
         inkscape:connector-curvature="0"
         d="m 57.403565,61.490866 v 8.946377 H 38.856472 M 57.403565,47.011451 V 38.02234 H 38.856472 v 32.414903"
         style="fill:none;stroke:#231f20;stroke-width:0.39199999;stroke-linecap:round;stroke-linejoin:round;stroke-miterlimit:3.86400008;stroke-dasharray:none;stroke-opacity:1"
         id="path1486" />
    </g>
    <path
       style="fill:none;stroke:#231f20;stroke-width:0.29197058;stroke-linecap:butt;stroke-linejoin:miter;stroke-miterlimit:3.86400008;stroke-dasharray:none;stroke-opacity:1;marker-end:url(#Arrow1Mend)"
       d="M 36.244266,35.964873 H 126.36698"
       id="path2392"
       inkscape:connector-curvature="0" />
    <g
       id="g5609"
       transform="matrix(0.63726465,0,0,0.8633614,8.2227582,-11.026358)">
      <path
         inkscape:connector-curvature="0"
         id="path1466"
         style="fill:#ffa19e;fill-opacity:1;fill-rule:nonzero;stroke:none;stroke-width:0.35277775"
         d="m 42.33805,61.576574 c 0,-5.82507 11.486091,-4.9657 11.486091,-7.14834 0,-2.18264 -11.486091,-1.38959 -11.486091,-7.14869 v 14.29703" />
      <path
         inkscape:connector-curvature="0"
         id="path1470"
         style="fill:none;stroke:#ff000a;stroke-width:0.48800001;stroke-linecap:butt;stroke-linejoin:miter;stroke-miterlimit:3.86400008;stroke-dasharray:none;stroke-opacity:1"
         d="m 42.33805,61.576574 c 0,-5.82507 11.486091,-4.9657 11.486091,-7.14834 0,-2.18264 -11.486091,-1.38959 -11.486091,-7.14869" />
    </g>
  </g>
  <g
     inkscape:groupmode="layer"
     id="layer2"
     inkscape:label="text"
     transform="translate(-23.812311,2.563525)"
     style="display:inline" />
</svg>
